<svg xmlns="http://www.w3.org/2000/svg" viewBox="0 0 73.604 32.619" height="123.283" width="278.187"><defs><clipPath id="a" clipPathUnits="userSpaceOnUse"><path d="M114.444 478.814h208.64v92.462h-208.64z"/></clipPath></defs><path d="M0 32.619h73.604v-7.93H0zM2.544 0L.345 2.214v8.094H5.06l2.203-2.174V0zm.71 2.508h1.1v5.288h-1.1zM8.277 0v10.308h6.213V7.796h-3.305V0zM15.518 0v10.308h4.715l2.203-2.174V3.389L20.236 0zm2.908 2.508h1.102v5.288h-1.102zM23.45 3.712h3.273v2.233h-3.274zM37.864 0l-2.2 3.39v6.918h4.714l2.204-2.174V6.356h-2.909v1.44h-1.101V2.508h1.101V5.65h2.909V0zM47.59 0v4.153h-1.087V0h-2.908v10.308h2.908V5.945h1.087v4.363H50.5V0zM53.726 0l-2.2 2.214v8.094h4.716l2.203-2.174V0zm.71 2.508h1.1v5.288h-1.1zM61.658 0l-2.2 2.214v8.094h4.716l2.203-2.174V0zm.709 2.508h1.102v5.288h-1.102zM67.39 0v10.308h6.213V7.796H70.3V0zM0 12.48v10.311h6.904V20.28H2.908v-1.851h1.543v-1.792H2.908v-1.645h3.996V12.48zM14.835 14.992h-4.069v1.645h4.069v4.494l-1.483 1.66h-5.42V20.28h4.377v-1.851H7.932v-2.556l2.198-3.393h4.705zM22.767 14.992h-4.069v1.645h4.069v4.494l-1.484 1.66h-5.42V20.28h4.377v-1.851h-4.377v-2.556l2.199-3.393h4.705zM30.698 22.791h-6.903V12.48h6.903v2.512h-3.995v1.645h1.542v1.792h-1.542v1.85h3.995zM38.645 22.791h-2.909v-7.8h-1.101v7.8h-2.909v-8.137l2.204-2.174h4.715zM46.562 14.992h-1.94v7.8h-2.908v-7.8h-2.056V12.48h6.904zM50.498 22.791H47.59V12.48h2.908zM55.536 16.637v-2.115l-1.102 2.115zm2.908 6.154h-2.908V18.43h-1.102v4.362h-2.908v-6.918l2.203-3.393h4.715zM65.67 22.791h-6.212V12.48h2.908v7.8h3.305zM68.897 12.48L66.7 15.873v2.556h4.377v1.85H66.7v2.512h5.42l1.483-1.66v-4.494h-4.068v-1.645h4.068V12.48z" fill="#231f20"/><g clip-path="url(#a)" transform="matrix(.35278 0 0 -.35278 -40.373 201.533)"><path d="M125.076 482.372c-.57.924-1.298-.06-2.733-.06-3.892 0-4.305 4.326-4.305 7.452 0 2.674.354 7.314 4.11 7.314 1.65 0 2.102-.59 2.948-.06v-4.738c-.767 2.497-1.436 2.99-2.419 2.97-1.552-.04-1.847-2.557-1.847-5.585 0-2.77.491-5.17 1.67-5.347 1.357-.197 2.025.983 2.576 3.185zM139.075 482.569h-6.802c.531.55.59 1.1.59 1.533v11.187c0 .59-.138 1.12-.59 1.553h3.873c-.453-.432-.61-.963-.61-1.553v-11.167c1.907.078 3.008 1.416 3.54 2.989zM151.127 488.23l-.904 6.253-.944-6.252zm.157-5.661c.492.334.59.983.492 1.533l-.413 2.517h-2.34l-.432-2.635a1.618 1.618 0 01.413-1.415h-3.165c.373.334.63 1.022.707 1.435l2.026 11.265c.078.492.06 1.16-.217 1.573h4.502c-.236-.334-.295-1.081-.216-1.573l1.986-11.147c.117-.61.354-1.22.805-1.553zM165.559 482.333c-1.24 0-2.378.786-3.322.079v5.819c.747-3.008 1.67-4.09 2.889-4.01 1.12.059 1.337 1.12 1.12 2.123-.235 1.258-1.277 1.867-2.377 2.929-1.042 1.022-1.731 1.789-2.025 2.674-.453 1.297-.394 3.027.629 4.128.59.629 1.474 1.003 2.653 1.003 1.16 0 1.908-.688 3.127-.06v-5.091c-1.062 2.713-1.947 3.519-3.165 3.342-.67-.078-1.023-.708-1.062-1.356-.06-1.042.53-1.887 1.454-2.674 1.062-.885 2.143-1.691 2.89-2.95.334-.57.57-1.257.57-2.182 0-2.575-1.14-3.774-3.381-3.774M179.558 482.333c-1.239 0-2.378.786-3.322.079v5.819c.747-3.008 1.671-4.09 2.889-4.01 1.121.059 1.337 1.12 1.121 2.123-.236 1.258-1.278 1.867-2.378 2.929-1.042 1.022-1.731 1.789-2.025 2.674-.453 1.297-.394 3.027.629 4.128.59.629 1.474 1.003 2.653 1.003 1.16 0 1.908-.688 3.127-.06v-5.091c-1.062 2.713-1.947 3.519-3.165 3.342-.669-.078-1.023-.708-1.062-1.356-.059-1.042.531-1.887 1.454-2.674 1.062-.885 2.143-1.691 2.891-2.95.333-.57.57-1.257.57-2.182 0-2.575-1.141-3.774-3.382-3.774M189.822 482.569c.492.51.609 1.18.609 1.533v11.187a2.18 2.18 0 01-.61 1.553h3.933a2.252 2.252 0 01-.59-1.553v-11.187c0-.432.098-1.002.59-1.533zM207.87 482.372c-.57.924-1.297-.06-2.732-.06-3.892 0-4.305 4.326-4.305 7.452 0 2.674.354 7.314 4.109 7.314 1.65 0 2.103-.59 2.949-.06v-4.738c-.767 2.497-1.436 2.99-2.42 2.97-1.551-.04-1.846-2.557-1.846-5.585 0-2.77.49-5.17 1.67-5.347 1.357-.197 2.025.983 2.576 3.185zM230.127 493.52c-1.002 1.475-2.044 1.828-3.54 1.749v-3.971c1.515 0 2.263.51 2.596 1.023v-3.598c-.314.648-1.12 1.023-2.595 1.042v-5.662c0-.354.118-.983.61-1.534h-3.873c.492.55.59 1.102.59 1.534v11.187c0 .589-.158 1.12-.59 1.552h6.802zM241.02 488.23l-.904 6.253-.944-6.252zm.157-5.661c.49.334.59.983.49 1.533l-.412 2.517h-2.34l-.431-2.635a1.618 1.618 0 01.413-1.415h-3.166c.374.334.629 1.022.708 1.435l2.025 11.265c.079.492.059 1.16-.216 1.573h4.502c-.236-.334-.295-1.081-.217-1.573l1.986-11.147c.118-.61.354-1.22.806-1.553zM260.74 496.842c-.551-.551-.668-1.003-.668-1.553v-10.361c0-.786.039-1.651.294-2.36h-2.712c-1.003 2.89-1.986 5.8-2.97 8.71v-7.156c0-.668.217-1.121.67-1.553h-3.54c.55.53.649 1.003.649 1.533v11.187c0 .668-.255 1.219-.65 1.553h3.54l1.907-5.465.727-2.458v6.37c0 .668-.235 1.12-.648 1.553zM272.969 484.102c0-.452.079-.982.61-1.533h-3.874c.492.531.59 1.101.59 1.533v11.108c-.688-.118-1.75-.472-2.575-2.123v3.755h7.825v-3.755c-.826 1.651-1.888 2.005-2.576 2.123zM286.399 488.23l-.904 6.253-.944-6.252zm.157-5.661c.49.334.59.983.49 1.533l-.412 2.517h-2.34l-.431-2.635a1.618 1.618 0 01.413-1.415h-3.166c.374.334.629 1.022.708 1.435l2.025 11.265c.079.492.059 1.16-.216 1.573h4.502c-.236-.334-.295-1.081-.217-1.573l1.986-11.147c.118-.61.354-1.22.806-1.553zM300.83 482.333c-1.24 0-2.378.786-3.322.079v5.819c.747-3.008 1.67-4.09 2.889-4.01 1.12.059 1.337 1.12 1.12 2.123-.235 1.258-1.277 1.867-2.378 2.929-1.042 1.022-1.73 1.789-2.024 2.674-.453 1.297-.394 3.027.629 4.128.59.629 1.474 1.003 2.653 1.003 1.16 0 1.908-.688 3.127-.06v-5.091c-1.062 2.713-1.947 3.519-3.165 3.342-.67-.078-1.023-.708-1.062-1.356-.06-1.042.53-1.887 1.454-2.674 1.062-.885 2.143-1.691 2.89-2.95.334-.57.57-1.257.57-2.182 0-2.575-1.14-3.774-3.381-3.774M313.61 482.569c.492.51.61 1.042.61 1.533v3.303l-2.772 7.766c-.158.49-.59 1.395-1.062 1.67h4.423c-.452-.431-.648-.982-.472-1.552l1.573-5.21 1.613 5.347c.137.453.078 1.003-.355 1.416h3.205c-.452-.393-.747-.924-.904-1.435l-2.517-8.002v-3.303c0-.432.099-1.002.59-1.533z" fill="#fff"/><path d="M212.623 564.167H201.09v-4.663h11.533v-12.741l-4.205-4.705h-15.364v7.12h12.408v5.246h-12.408v7.245l6.233 9.618h13.336z" fill="#231f20"/></g></svg>
