<svg xmlns="http://www.w3.org/2000/svg" width="290" height="129" viewBox="0 0 76.729 34.131"><defs><clipPath clipPathUnits="userSpaceOnUse" id="a"><path d="M114.444 478.814h208.64v92.462h-208.64z"/></clipPath></defs><path d="M1.323 33.602h74.083v-8.01H1.323zM3.884.648L1.67 2.885v8.177h4.746l2.218-2.197V.648zm.714 2.533h1.108v5.343H4.598zM9.653.648v10.414h6.254V8.524h-3.326V.648zM16.942.648v10.414h4.746l2.217-2.197V4.072L21.69.648zm2.927 2.533h1.11v5.343h-1.11zM24.925 4.398h3.295v2.256h-3.295zM39.434.648l-2.215 3.424v6.99h4.746l2.217-2.197V7.07h-2.927v1.455h-1.109V3.181h1.109v3.176h2.927V.647zM49.224.648v4.196h-1.095V.648h-2.927v10.414h2.927V6.654h1.095v4.408h2.927V.648zM55.4.648l-2.214 2.237v8.177h4.745l2.218-2.197V.648zm.713 2.533h1.109v5.343h-1.109zM63.383.648l-2.214 2.237v8.177h4.746l2.218-2.197V.648zm.714 2.533h1.108v5.343h-1.108zM69.153.648v10.414h6.253V8.524H72.08V.648zM1.323 13.256v10.417H8.27v-2.537h-4.02v-1.87h1.552v-1.81H4.25v-1.662h4.021v-2.538zM16.255 15.794H12.16v1.662h4.095v4.54l-1.493 1.678H9.306v-2.538h4.406v-1.87H9.306v-2.582l2.213-3.428h4.736zM24.238 15.794h-4.095v1.662h4.095v4.54l-1.493 1.678H17.29v-2.538h4.405v-1.87H17.29v-2.582l2.213-3.428h4.735zM32.221 23.674h-6.948V13.256h6.948v2.538h-4.02v1.662h1.551v1.81H28.2v1.87h4.021zM40.22 23.674h-2.928v-7.88h-1.109v7.88h-2.927v-8.221l2.218-2.197h4.745zM48.188 15.794h-1.951v7.88h-2.928v-7.88h-2.07v-2.538h6.949zM52.15 23.674h-2.927V13.256h2.927zM57.221 17.456v-2.137l-1.109 2.137zm2.927 6.218h-2.927v-4.408h-1.109v4.408h-2.927v-6.99l2.218-3.428h4.745zM67.422 23.674h-6.254V13.256h2.928v7.88h3.326zM70.67 13.256l-2.213 3.428v2.582h4.406v1.87h-4.406v2.537h5.455l1.493-1.676v-4.541H71.31v-1.662h4.095v-2.538z" fill="#555555"/><g clip-path="url(#a)" transform="matrix(.35508 0 0 -.35641 -39.314 204.256)"><path d="M125.076 482.372c-.57.924-1.298-.06-2.733-.06-3.892 0-4.305 4.326-4.305 7.452 0 2.674.354 7.314 4.11 7.314 1.65 0 2.102-.59 2.948-.06v-4.738c-.767 2.497-1.436 2.99-2.419 2.97-1.552-.04-1.847-2.557-1.847-5.585 0-2.77.491-5.17 1.67-5.347 1.357-.197 2.025.983 2.576 3.185zM139.075 482.569h-6.802c.531.55.59 1.1.59 1.533v11.187c0 .59-.138 1.12-.59 1.553h3.873c-.453-.432-.61-.963-.61-1.553v-11.167c1.907.078 3.008 1.416 3.54 2.989zM151.127 488.23l-.904 6.253-.944-6.252zm.157-5.661c.492.334.59.983.492 1.533l-.413 2.517h-2.34l-.432-2.635a1.618 1.618 0 01.413-1.415h-3.165c.373.334.63 1.022.707 1.435l2.026 11.265c.078.492.06 1.16-.217 1.573h4.502c-.236-.334-.295-1.081-.216-1.573l1.986-11.147c.117-.61.354-1.22.805-1.553zM165.559 482.333c-1.24 0-2.378.786-3.322.079v5.819c.747-3.008 1.67-4.09 2.889-4.01 1.12.059 1.337 1.12 1.12 2.123-.235 1.258-1.277 1.867-2.377 2.929-1.042 1.022-1.731 1.789-2.025 2.674-.453 1.297-.394 3.027.629 4.128.59.629 1.474 1.003 2.653 1.003 1.16 0 1.908-.688 3.127-.06v-5.091c-1.062 2.713-1.947 3.519-3.165 3.342-.67-.078-1.023-.708-1.062-1.356-.06-1.042.53-1.887 1.454-2.674 1.062-.885 2.143-1.691 2.89-2.95.334-.57.57-1.257.57-2.182 0-2.575-1.14-3.774-3.381-3.774M179.558 482.333c-1.239 0-2.378.786-3.322.079v5.819c.747-3.008 1.671-4.09 2.889-4.01 1.121.059 1.337 1.12 1.121 2.123-.236 1.258-1.278 1.867-2.378 2.929-1.042 1.022-1.731 1.789-2.025 2.674-.453 1.297-.394 3.027.629 4.128.59.629 1.474 1.003 2.653 1.003 1.16 0 1.908-.688 3.127-.06v-5.091c-1.062 2.713-1.947 3.519-3.165 3.342-.669-.078-1.023-.708-1.062-1.356-.059-1.042.531-1.887 1.454-2.674 1.062-.885 2.143-1.691 2.891-2.95.333-.57.57-1.257.57-2.182 0-2.575-1.141-3.774-3.382-3.774M189.822 482.569c.492.51.609 1.18.609 1.533v11.187a2.18 2.18 0 01-.61 1.553h3.933a2.252 2.252 0 01-.59-1.553v-11.187c0-.432.098-1.002.59-1.533zM207.87 482.372c-.57.924-1.297-.06-2.732-.06-3.892 0-4.305 4.326-4.305 7.452 0 2.674.354 7.314 4.109 7.314 1.65 0 2.103-.59 2.949-.06v-4.738c-.767 2.497-1.436 2.99-2.42 2.97-1.551-.04-1.846-2.557-1.846-5.585 0-2.77.49-5.17 1.67-5.347 1.357-.197 2.025.983 2.576 3.185zM230.127 493.52c-1.002 1.475-2.044 1.828-3.54 1.749v-3.971c1.515 0 2.263.51 2.596 1.023v-3.598c-.314.648-1.12 1.023-2.595 1.042v-5.662c0-.354.118-.983.61-1.534h-3.873c.492.55.59 1.102.59 1.534v11.187c0 .589-.158 1.12-.59 1.552h6.802zM241.02 488.23l-.904 6.253-.944-6.252zm.157-5.661c.49.334.59.983.49 1.533l-.412 2.517h-2.34l-.431-2.635a1.618 1.618 0 01.413-1.415h-3.166c.374.334.629 1.022.708 1.435l2.025 11.265c.079.492.059 1.16-.216 1.573h4.502c-.236-.334-.295-1.081-.217-1.573l1.986-11.147c.118-.61.354-1.22.806-1.553zM260.74 496.842c-.551-.551-.668-1.003-.668-1.553v-10.361c0-.786.039-1.651.294-2.36h-2.712c-1.003 2.89-1.986 5.8-2.97 8.71v-7.156c0-.668.217-1.121.67-1.553h-3.54c.55.53.649 1.003.649 1.533v11.187c0 .668-.255 1.219-.65 1.553h3.54l1.907-5.465.727-2.458v6.37c0 .668-.235 1.12-.648 1.553zM272.969 484.102c0-.452.079-.982.61-1.533h-3.874c.492.531.59 1.101.59 1.533v11.108c-.688-.118-1.75-.472-2.575-2.123v3.755h7.825v-3.755c-.826 1.651-1.888 2.005-2.576 2.123zM286.399 488.23l-.904 6.253-.944-6.252zm.157-5.661c.49.334.59.983.49 1.533l-.412 2.517h-2.34l-.431-2.635a1.618 1.618 0 01.413-1.415h-3.166c.374.334.629 1.022.708 1.435l2.025 11.265c.079.492.059 1.16-.216 1.573h4.502c-.236-.334-.295-1.081-.217-1.573l1.986-11.147c.118-.61.354-1.22.806-1.553zM300.83 482.333c-1.24 0-2.378.786-3.322.079v5.819c.747-3.008 1.67-4.09 2.889-4.01 1.12.059 1.337 1.12 1.12 2.123-.235 1.258-1.277 1.867-2.378 2.929-1.042 1.022-1.73 1.789-2.024 2.674-.453 1.297-.394 3.027.629 4.128.59.629 1.474 1.003 2.653 1.003 1.16 0 1.908-.688 3.127-.06v-5.091c-1.062 2.713-1.947 3.519-3.165 3.342-.67-.078-1.023-.708-1.062-1.356-.06-1.042.53-1.887 1.454-2.674 1.062-.885 2.143-1.691 2.89-2.95.334-.57.57-1.257.57-2.182 0-2.575-1.14-3.774-3.381-3.774M313.61 482.569c.492.51.61 1.042.61 1.533v3.303l-2.772 7.766c-.158.49-.59 1.395-1.062 1.67h4.423c-.452-.431-.648-.982-.472-1.552l1.573-5.21 1.613 5.347c.137.453.078 1.003-.355 1.416h3.205c-.452-.393-.747-.924-.904-1.435l-2.517-8.002v-3.303c0-.432.099-1.002.59-1.533z" fill="#fff"/><path d="M212.623 564.167H201.09v-4.663h11.533v-12.741l-4.205-4.705h-15.364v7.12h12.408v5.246h-12.408v7.245l6.233 9.618h13.336z" fill="#555555"/></g></svg>
